<mxfile host="app.diagrams.net" modified="2023-04-18T11:49:29.325Z" agent="Mozilla/5.0 (Windows NT 10.0; Win64; x64) AppleWebKit/537.36 (KHTML, like Gecko) Chrome/112.0.0.0 Safari/537.36" etag="DV-etmbl5GXfqmNmW88r" version="21.1.8" type="device">
  <diagram name="Page-1" id="zEu1ZX5HEO9qql5FpW_x">
    <mxGraphModel dx="1050" dy="683" grid="1" gridSize="10" guides="1" tooltips="1" connect="1" arrows="1" fold="1" page="1" pageScale="1" pageWidth="850" pageHeight="1100" math="0" shadow="0">
      <root>
        <mxCell id="0" />
        <mxCell id="1" parent="0" />
        <mxCell id="R6by3xjxXIj3BbOd1hWU-12" style="edgeStyle=orthogonalEdgeStyle;rounded=0;orthogonalLoop=1;jettySize=auto;html=1;exitX=0.5;exitY=1;exitDx=0;exitDy=0;entryX=0.5;entryY=0;entryDx=0;entryDy=0;" edge="1" parent="1" source="R6by3xjxXIj3BbOd1hWU-1" target="R6by3xjxXIj3BbOd1hWU-4">
          <mxGeometry relative="1" as="geometry" />
        </mxCell>
        <mxCell id="R6by3xjxXIj3BbOd1hWU-1" value="Initial population of fireflies, define other constraints" style="rounded=1;whiteSpace=wrap;html=1;" vertex="1" parent="1">
          <mxGeometry x="360" y="90" width="120" height="60" as="geometry" />
        </mxCell>
        <mxCell id="R6by3xjxXIj3BbOd1hWU-11" style="edgeStyle=orthogonalEdgeStyle;rounded=0;orthogonalLoop=1;jettySize=auto;html=1;exitX=0.5;exitY=1;exitDx=0;exitDy=0;entryX=0.5;entryY=0;entryDx=0;entryDy=0;" edge="1" parent="1" source="R6by3xjxXIj3BbOd1hWU-2" target="R6by3xjxXIj3BbOd1hWU-1">
          <mxGeometry relative="1" as="geometry" />
        </mxCell>
        <mxCell id="R6by3xjxXIj3BbOd1hWU-2" value="start" style="ellipse;whiteSpace=wrap;html=1;fontSize=20;" vertex="1" parent="1">
          <mxGeometry x="360" y="40" width="120" height="30" as="geometry" />
        </mxCell>
        <mxCell id="R6by3xjxXIj3BbOd1hWU-3" value="stop" style="ellipse;whiteSpace=wrap;html=1;fontSize=20;" vertex="1" parent="1">
          <mxGeometry x="360" y="500" width="120" height="30" as="geometry" />
        </mxCell>
        <mxCell id="R6by3xjxXIj3BbOd1hWU-13" style="edgeStyle=orthogonalEdgeStyle;rounded=0;orthogonalLoop=1;jettySize=auto;html=1;exitX=0.5;exitY=1;exitDx=0;exitDy=0;entryX=0.5;entryY=0;entryDx=0;entryDy=0;" edge="1" parent="1" source="R6by3xjxXIj3BbOd1hWU-4" target="R6by3xjxXIj3BbOd1hWU-7">
          <mxGeometry relative="1" as="geometry" />
        </mxCell>
        <mxCell id="R6by3xjxXIj3BbOd1hWU-4" value="Evaluate the light intensities for each" style="rounded=1;whiteSpace=wrap;html=1;" vertex="1" parent="1">
          <mxGeometry x="360" y="170" width="120" height="60" as="geometry" />
        </mxCell>
        <mxCell id="R6by3xjxXIj3BbOd1hWU-14" style="edgeStyle=orthogonalEdgeStyle;rounded=0;orthogonalLoop=1;jettySize=auto;html=1;exitX=0.5;exitY=1;exitDx=0;exitDy=0;entryX=0.5;entryY=0;entryDx=0;entryDy=0;" edge="1" parent="1" source="R6by3xjxXIj3BbOd1hWU-7" target="R6by3xjxXIj3BbOd1hWU-8">
          <mxGeometry relative="1" as="geometry" />
        </mxCell>
        <mxCell id="R6by3xjxXIj3BbOd1hWU-7" value="find the attraction potential" style="rounded=1;whiteSpace=wrap;html=1;" vertex="1" parent="1">
          <mxGeometry x="360" y="250" width="120" height="60" as="geometry" />
        </mxCell>
        <mxCell id="R6by3xjxXIj3BbOd1hWU-15" style="edgeStyle=orthogonalEdgeStyle;rounded=0;orthogonalLoop=1;jettySize=auto;html=1;exitX=0.5;exitY=1;exitDx=0;exitDy=0;entryX=0.5;entryY=0;entryDx=0;entryDy=0;" edge="1" parent="1" source="R6by3xjxXIj3BbOd1hWU-8" target="R6by3xjxXIj3BbOd1hWU-9">
          <mxGeometry relative="1" as="geometry" />
        </mxCell>
        <mxCell id="R6by3xjxXIj3BbOd1hWU-8" value="Move the fireflies" style="rounded=1;whiteSpace=wrap;html=1;" vertex="1" parent="1">
          <mxGeometry x="360" y="330" width="120" height="60" as="geometry" />
        </mxCell>
        <mxCell id="R6by3xjxXIj3BbOd1hWU-16" style="edgeStyle=orthogonalEdgeStyle;rounded=0;orthogonalLoop=1;jettySize=auto;html=1;exitX=0.5;exitY=1;exitDx=0;exitDy=0;entryX=0.5;entryY=0;entryDx=0;entryDy=0;" edge="1" parent="1" source="R6by3xjxXIj3BbOd1hWU-9" target="R6by3xjxXIj3BbOd1hWU-3">
          <mxGeometry relative="1" as="geometry" />
        </mxCell>
        <mxCell id="R6by3xjxXIj3BbOd1hWU-17" style="edgeStyle=orthogonalEdgeStyle;rounded=0;orthogonalLoop=1;jettySize=auto;html=1;exitX=0;exitY=0.5;exitDx=0;exitDy=0;entryX=0;entryY=0.5;entryDx=0;entryDy=0;" edge="1" parent="1" source="R6by3xjxXIj3BbOd1hWU-9" target="R6by3xjxXIj3BbOd1hWU-4">
          <mxGeometry relative="1" as="geometry">
            <Array as="points">
              <mxPoint x="310" y="450" />
              <mxPoint x="310" y="200" />
            </Array>
          </mxGeometry>
        </mxCell>
        <mxCell id="R6by3xjxXIj3BbOd1hWU-9" value="stopping criteria" style="rhombus;whiteSpace=wrap;html=1;" vertex="1" parent="1">
          <mxGeometry x="380" y="410" width="80" height="80" as="geometry" />
        </mxCell>
      </root>
    </mxGraphModel>
  </diagram>
</mxfile>
